# xmcd
#
# Track frame offsets:
#	150
#	19451
#	33498
#	54591
#	68479
#	87397
#	104787
#	122691
#	142516
#	162722
#	185800
#	204502
#	220661
#
# Disc length: 3185 seconds
#
# Revision: 0
# Processed by: cddbd v1.5.1PL0 Copyright (c) Steve Scherf et al.
# Submitted via: dBpowerAMP V4.0
#
DISCID=bf0c6f0d
DTITLE=Picazzo - Tusen Dager Til
DYEAR=2003
DGENRE=Country
TTITLE0=Hei Du
TTITLE1=Dagen Er Vår (Sha La La)
TTITLE2=You Took Your Love Away
TTITLE3=Hva Var Det Jeg Sa
TTITLE4=Aldri For Seint
TTITLE5=Tusen Dager Til
TTITLE6=Troll I Ord
TTITLE7=Fri
TTITLE8=Without You
TTITLE9=Var Det Du
TTITLE10=Stjerneskudd
TTITLE11=Gatelys
TTITLE12=Aldri Igjen
EXTD=
EXTT0=
EXTT1=
EXTT2=
EXTT3=
EXTT4=
EXTT5=
EXTT6=
EXTT7=
EXTT8=
EXTT9=
EXTT10=
EXTT11=
EXTT12=
PLAYORDER=
